<?xml version="1.0" encoding="iso-8859-1"?>
<!-- Generator: Adobe Illustrator 18.0.0, SVG Export Plug-In . SVG Version: 6.00 Build 0)  -->
<!DOCTYPE svg PUBLIC "-//W3C//DTD SVG 1.1//EN" "http://www.w3.org/Graphics/SVG/1.1/DTD/svg11.dtd">
<svg version="1.1" id="Layer_1" xmlns="http://www.w3.org/2000/svg" xmlns:xlink="http://www.w3.org/1999/xlink" x="0px" y="0px"
	 viewBox="0 0 184.22 184.25" style="enable-background:new 0 0 184.22 184.25;" xml:space="preserve">
<symbol  id="New_Symbol_3" viewBox="-92.11 -92.13 184.22 184.25">
	<polygon style="fill:#323639;" points="92.11,-92.13 -92.11,-92.13 -92.11,92.13 92.11,92.13 	"/>
	<polygon style="fill:#323639;" points="92.11,-92.13 -92.11,-92.13 -92.11,-14 92.11,-14 	"/>
	<g>
		<g style="opacity:0.78;">
			<path style="fill:#90D6E3;" d="M75.53-16.81c0-0.47-0.38-0.86-0.86-0.86H13.86c-0.47,0-0.86,0.38-0.86,0.86v52.15
				c0,0.47,0.38,0.86,0.86,0.86h60.82c0.47,0,0.86-0.38,0.86-0.86V-16.81z"/>
			<path style="fill:#EAEFF2;" d="M74.68,36.19H13.86c-0.47,0-0.86-0.38-0.86-0.86v-1.87h62.54v1.87
				C75.53,35.81,75.15,36.19,74.68,36.19z"/>
			<path style="fill:#52A8BB;" d="M65.84,10.51H22.05c-0.35,0-0.63,0.28-0.63,0.63c0,0.35,0.28,0.63,0.63,0.63h43.79
				c0.35,0,0.63-0.28,0.63-0.63C66.47,10.79,66.19,10.51,65.84,10.51z M66.47,7.24c0,0.35-0.28,0.63-0.63,0.63H22.05
				c-0.35,0-0.63-0.28-0.63-0.63c0-0.35,0.28-0.63,0.63-0.63h43.79C66.19,6.61,66.47,6.89,66.47,7.24z M44.41,15.04
				c0,0.35-0.28,0.63-0.63,0.63H22.05c-0.35,0-0.63-0.28-0.63-0.63c0-0.35,0.28-0.63,0.63-0.63h21.73
				C44.13,14.41,44.41,14.69,44.41,15.04z M44.41,18.95c0,0.35-0.28,0.63-0.63,0.63H22.05c-0.35,0-0.63-0.28-0.63-0.63
				c0-0.35,0.28-0.63,0.63-0.63h21.73C44.13,18.32,44.41,18.6,44.41,18.95z M44.41,22.85c0,0.35-0.28,0.63-0.63,0.63h-13.7
				c-0.35,0-0.63-0.28-0.63-0.63c0-0.35,0.28-0.63,0.63-0.63h13.7C44.13,22.22,44.41,22.5,44.41,22.85z M44.41,26.75
				c0,0.35-0.28,0.63-0.63,0.63h-13.7c-0.35,0-0.63-0.28-0.63-0.63c0-0.35,0.28-0.63,0.63-0.63h13.7
				C44.13,26.12,44.41,26.4,44.41,26.75z M66.38-10.86c0,0.35-0.28,0.63-0.63,0.63H54.83c-0.35,0-0.63-0.28-0.63-0.63
				s0.28-0.63,0.63-0.63h10.93C66.1-11.49,66.38-11.21,66.38-10.86z M59.54-6.87c0,0.35-0.28,0.63-0.63,0.63h-4
				c-0.35,0-0.63-0.28-0.63-0.63c0-0.35,0.28-0.63,0.63-0.63h4C59.26-7.5,59.54-7.22,59.54-6.87z M24.52,27.88
				c-1.49,0-2.7-1.21-2.7-2.69v-2.44c0-0.35,0.28-0.63,0.63-0.63c0.35,0,0.63,0.28,0.63,0.63v0.72h2.87v-0.72
				c0-0.35,0.28-0.63,0.63-0.63c0.35,0,0.63,0.28,0.63,0.63v2.44C27.21,26.67,26,27.88,24.52,27.88z M25.95,24.73h-2.87v0.46
				c0,0.79,0.64,1.44,1.44,1.44s1.44-0.64,1.44-1.44V24.73z"/>
			<g>
				<path style="fill:#D7EFF6;" d="M49.84,16.49h15.18c0.15,0,0.28,0.12,0.28,0.28v3.56l-4,4l-5.85-5.85l-2.28,2.28l-3.61-3.61
					v-0.39C49.56,16.62,49.68,16.49,49.84,16.49z"/>
				<path style="fill:#EAEFF2;" d="M65.01,27.19c0.15,0,0.28-0.12,0.28-0.28V16.77c0-0.15-0.12-0.28-0.28-0.28H49.84
					c-0.15,0-0.28,0.12-0.28,0.28v10.14c0,0.15,0.12,0.28,0.28,0.28H65.01 M65.01,28.38H49.84c-0.81,0-1.47-0.66-1.47-1.47V16.77
					c0-0.81,0.66-1.47,1.47-1.47h15.18c0.81,0,1.47,0.66,1.47,1.47v10.14C66.48,27.72,65.82,28.38,65.01,28.38L65.01,28.38z"/>
				<path style="fill:#FBB040;" d="M54.56,23.94c0-0.77-0.63-1.4-1.4-1.4c-0.77,0-1.4,0.63-1.4,1.4c0,0.77,0.63,1.4,1.4,1.4
					C53.94,25.33,54.56,24.71,54.56,23.94z"/>
			</g>
			<path style="fill:#9F79A8;" d="M21.09,1.91c0,0.29,0.24,0.52,0.52,0.52h28.71c0.29,0,0.52-0.23,0.52-0.52v-13.88
				c0-0.29-0.24-0.52-0.52-0.52H21.62c-0.29,0-0.52,0.24-0.52,0.52V1.91z"/>
			<path style="fill:#54526A;" d="M39.37-3.93L34.02-1.1c-0.18,0.1-0.39,0.15-0.59,0.15c-0.23,0-0.45-0.06-0.65-0.18
				c-0.38-0.23-0.61-0.64-0.61-1.08v-5.65c0-0.44,0.23-0.85,0.61-1.08c0.2-0.12,0.42-0.18,0.65-0.18c0.2,0,0.4,0.05,0.59,0.15
				l5.35,2.83c0.41,0.22,0.67,0.65,0.67,1.11S39.78-4.14,39.37-3.93z"/>
		</g>
		<g style="opacity:0.68;">
			<path style="fill:#90D6E3;" d="M-38.34-17.28c0-0.28-0.23-0.51-0.51-0.51h-36c-0.28,0-0.51,0.23-0.51,0.51v30.87
				c0,0.28,0.23,0.51,0.51,0.51h36c0.28,0,0.51-0.23,0.51-0.51V-17.28z"/>
			<path style="fill:#EAEFF2;" d="M-38.85,14.1h-36c-0.28,0-0.51-0.23-0.51-0.51v-1.11h37.02v1.11
				C-38.34,13.87-38.57,14.1-38.85,14.1z"/>
			<path style="fill:#52A8BB;" d="M-44.08-1.1H-70c-0.21,0-0.37,0.17-0.37,0.37s0.17,0.37,0.37,0.37h25.92
				c0.21,0,0.37-0.17,0.37-0.37S-43.88-1.1-44.08-1.1z M-43.71-3.04c0,0.21-0.17,0.37-0.37,0.37H-70c-0.21,0-0.37-0.17-0.37-0.37
				s0.17-0.37,0.37-0.37h25.92C-43.88-3.41-43.71-3.25-43.71-3.04z M-56.77,1.58c0,0.21-0.17,0.37-0.37,0.37H-70
				c-0.21,0-0.37-0.17-0.37-0.37s0.17-0.37,0.37-0.37h12.86C-56.93,1.21-56.77,1.37-56.77,1.58z M-56.77,3.89
				c0,0.21-0.17,0.37-0.37,0.37H-70c-0.21,0-0.37-0.17-0.37-0.37c0-0.21,0.17-0.37,0.37-0.37h12.86
				C-56.93,3.52-56.77,3.68-56.77,3.89z M-56.77,6.2c0,0.21-0.17,0.37-0.37,0.37h-8.11c-0.21,0-0.37-0.17-0.37-0.37
				s0.17-0.37,0.37-0.37h8.11C-56.93,5.83-56.77,5.99-56.77,6.2z M-56.77,8.51c0,0.21-0.17,0.37-0.37,0.37h-8.11
				c-0.21,0-0.37-0.17-0.37-0.37s0.17-0.37,0.37-0.37h8.11C-56.93,8.14-56.77,8.31-56.77,8.51z M-43.76-13.75
				c0,0.21-0.17,0.37-0.37,0.37h-6.47c-0.21,0-0.37-0.17-0.37-0.37s0.17-0.37,0.37-0.37h6.47C-43.93-14.13-43.76-13.96-43.76-13.75z
				 M-47.81-11.39c0,0.21-0.17,0.37-0.37,0.37h-2.37c-0.21,0-0.37-0.17-0.37-0.37s0.17-0.37,0.37-0.37h2.37
				C-47.98-11.76-47.81-11.6-47.81-11.39z M-68.54,9.18c-0.88,0-1.6-0.72-1.6-1.6V6.14c0-0.21,0.17-0.37,0.37-0.37
				c0.21,0,0.37,0.17,0.37,0.37v0.43h1.7V6.14c0-0.21,0.17-0.37,0.37-0.37s0.37,0.17,0.37,0.37v1.44
				C-66.95,8.47-67.66,9.18-68.54,9.18z M-67.69,7.31h-1.7v0.27c0,0.47,0.38,0.85,0.85,0.85c0.47,0,0.85-0.38,0.85-0.85V7.31z"/>
			<g>
				<path style="fill:#D7EFF6;" d="M-53.55,2.44h8.99c0.09,0,0.16,0.07,0.16,0.16v2.11l-2.37,2.37l-3.46-3.46l-1.35,1.35l-2.13-2.13
					V2.6C-53.72,2.51-53.65,2.44-53.55,2.44z"/>
				<path style="fill:#EAEFF2;" d="M-44.57,8.77c0.09,0,0.16-0.07,0.16-0.16v-6c0-0.09-0.07-0.16-0.16-0.16h-8.99
					c-0.09,0-0.16,0.07-0.16,0.16v6c0,0.09,0.07,0.16,0.16,0.16H-44.57 M-44.57,9.47h-8.99c-0.48,0-0.87-0.39-0.87-0.87v-6
					c0-0.48,0.39-0.87,0.87-0.87h8.99c0.48,0,0.87,0.39,0.87,0.87v6C-43.7,9.08-44.09,9.47-44.57,9.47L-44.57,9.47z"/>
				<path style="fill:#FBB040;" d="M-50.76,6.84c0-0.46-0.37-0.83-0.83-0.83c-0.46,0-0.83,0.37-0.83,0.83
					c0,0.46,0.37,0.83,0.83,0.83C-51.13,7.67-50.76,7.3-50.76,6.84z"/>
			</g>
			<path style="fill:#9F79A8;" d="M-70.57-6.19c0,0.17,0.14,0.31,0.31,0.31h17c0.17,0,0.31-0.14,0.31-0.31v-8.22
				c0-0.17-0.14-0.31-0.31-0.31h-17c-0.17,0-0.31,0.14-0.31,0.31V-6.19z"/>
			<path style="fill:#54526A;" d="M-59.75-9.65l-3.17,1.67c-0.11,0.06-0.23,0.09-0.35,0.09c-0.13,0-0.27-0.04-0.38-0.11
				c-0.22-0.13-0.36-0.38-0.36-0.64v-3.35c0-0.26,0.14-0.5,0.36-0.64c0.12-0.07,0.25-0.11,0.38-0.11c0.12,0,0.24,0.03,0.35,0.09
				l3.17,1.67c0.24,0.13,0.4,0.38,0.4,0.66S-59.51-9.78-59.75-9.65z"/>
		</g>
		<g>
			<path style="fill:#90D6E3;" d="M30.88-16.7c0-0.6-0.49-1.09-1.09-1.09h-77.28c-0.6,0-1.09,0.49-1.09,1.09v66.26
				c0,0.6,0.49,1.09,1.09,1.09h77.28c0.6,0,1.09-0.49,1.09-1.09V-16.7z"/>
			<path style="fill:#EAEFF2;" d="M29.79,50.65h-77.28c-0.6,0-1.09-0.49-1.09-1.09v-2.37h79.46v2.37
				C30.88,50.17,30.39,50.65,29.79,50.65z"/>
			<path style="fill:#52A8BB;" d="M18.56,18.02h-55.63c-0.44,0-0.8,0.36-0.8,0.8c0,0.44,0.36,0.8,0.8,0.8h55.63
				c0.44,0,0.8-0.36,0.8-0.8C19.36,18.38,19,18.02,18.56,18.02z M19.36,13.86c0,0.44-0.36,0.8-0.8,0.8h-55.63
				c-0.44,0-0.8-0.36-0.8-0.8c0-0.44,0.36-0.8,0.8-0.8h55.63C19,13.06,19.36,13.42,19.36,13.86z M-8.67,23.78
				c0,0.44-0.36,0.8-0.8,0.8h-27.61c-0.44,0-0.8-0.36-0.8-0.8c0-0.44,0.36-0.8,0.8-0.8h27.61C-9.03,22.98-8.67,23.34-8.67,23.78z
				 M-8.67,28.74c0,0.44-0.36,0.8-0.8,0.8h-27.61c-0.44,0-0.8-0.36-0.8-0.8c0-0.44,0.36-0.8,0.8-0.8h27.61
				C-9.03,27.94-8.67,28.3-8.67,28.74z M-8.67,33.7c0,0.44-0.36,0.8-0.8,0.8h-17.4c-0.44,0-0.8-0.36-0.8-0.8
				c0-0.44,0.36-0.8,0.8-0.8h17.4C-9.03,32.9-8.67,33.26-8.67,33.7z M-8.67,38.66c0,0.44-0.36,0.8-0.8,0.8h-17.4
				c-0.44,0-0.8-0.36-0.8-0.8s0.36-0.8,0.8-0.8h17.4C-9.03,37.86-8.67,38.22-8.67,38.66z M19.25-9.13c0,0.44-0.36,0.8-0.8,0.8H4.57
				c-0.44,0-0.8-0.36-0.8-0.8c0-0.44,0.36-0.8,0.8-0.8h13.88C18.89-9.93,19.25-9.57,19.25-9.13z M10.56-4.06
				c0,0.44-0.36,0.8-0.8,0.8H4.68c-0.44,0-0.8-0.36-0.8-0.8s0.36-0.8,0.8-0.8h5.08C10.2-4.86,10.56-4.5,10.56-4.06z M-33.94,40.09
				c-1.89,0-3.42-1.54-3.42-3.42v-3.1c0-0.44,0.36-0.8,0.8-0.8c0.44,0,0.8,0.36,0.8,0.8v0.91h3.65v-0.91c0-0.44,0.36-0.8,0.8-0.8
				s0.8,0.36,0.8,0.8v3.1C-30.52,38.56-32.06,40.09-33.94,40.09z M-32.12,36.09h-3.65v0.58c0,1.01,0.82,1.83,1.83,1.83
				s1.83-0.82,1.83-1.83V36.09z"/>
			<g>
				<path style="fill:#D7EFF6;" d="M-1.77,25.62h19.29c0.19,0,0.35,0.16,0.35,0.35v4.53l-5.08,5.08l-7.43-7.43l-2.9,2.9l-4.58-4.58
					v-0.5C-2.13,25.78-1.97,25.62-1.77,25.62z"/>
				<path style="fill:#EAEFF2;" d="M17.51,39.21c0.19,0,0.35-0.16,0.35-0.35V25.98c0-0.19-0.16-0.35-0.35-0.35H-1.77
					c-0.19,0-0.35,0.16-0.35,0.35v12.88c0,0.19,0.16,0.35,0.35,0.35H17.51 M17.51,40.72H-1.77c-1.03,0-1.86-0.84-1.86-1.86V25.98
					c0-1.03,0.84-1.86,1.86-1.86h19.29c1.03,0,1.86,0.84,1.86,1.86v12.88C19.38,39.88,18.54,40.72,17.51,40.72L17.51,40.72z"/>
				<path style="fill:#FBB040;" d="M4.23,35.08c0-0.98-0.79-1.77-1.77-1.77c-0.98,0-1.77,0.79-1.77,1.77s0.79,1.77,1.77,1.77
					C3.44,36.86,4.23,36.06,4.23,35.08z"/>
			</g>
			<path style="fill:#9F79A8;" d="M-38.29,7.09c0,0.37,0.3,0.67,0.67,0.67h36.48c0.37,0,0.67-0.3,0.67-0.67v-17.64
				c0-0.37-0.3-0.67-0.67-0.67h-36.48c-0.37,0-0.67,0.3-0.67,0.67V7.09z"/>
			<path style="fill:#54526A;" d="M-15.07-0.32l-6.8,3.59c-0.23,0.12-0.49,0.19-0.75,0.19c-0.29,0-0.57-0.08-0.83-0.23
				c-0.48-0.29-0.77-0.81-0.77-1.37v-7.18c0-0.56,0.29-1.08,0.77-1.37c0.25-0.15,0.54-0.23,0.83-0.23c0.26,0,0.51,0.06,0.75,0.19
				l6.8,3.59c0.52,0.28,0.85,0.82,0.85,1.41S-14.55-0.6-15.07-0.32z"/>
		</g>
	</g>
	<polygon style="fill:#323639;" points="52.99,-11.86 0.23,14.41 -52.53,-11.86 -39.71,-11.86 -39.71,-29.36 40.17,-29.36 
		40.17,-11.86 	"/>
	<g>
		<g>
			<path style="fill:#EADCB7;" d="M14.32-10.7c0.31,0,0.56-0.25,0.56-0.56v-37.52c0-0.31-0.25-0.56-0.56-0.56h-30.53
				c-0.31,0-0.56,0.25-0.56,0.56v37.52c0,0.31,0.25,0.56,0.56,0.56H14.32z"/>
		</g>
		<g>
			<g>
				<path style="fill:#DABC70;" d="M11-29.71h-23.98c-0.37,0-0.68,0.3-0.68,0.68s0.3,0.68,0.68,0.68H11c0.37,0,0.68-0.3,0.68-0.68
					S11.37-29.71,11-29.71z"/>
			</g>
			<g>
				<path style="fill:#DABC70;" d="M11-25.24h-23.98c-0.37,0-0.68,0.3-0.68,0.68c0,0.37,0.3,0.68,0.68,0.68H11
					c0.37,0,0.68-0.3,0.68-0.68C11.67-24.94,11.37-25.24,11-25.24z"/>
			</g>
			<g>
				<path style="fill:#DABC70;" d="M11-20.78H-3.75c-0.37,0-0.68,0.3-0.68,0.68s0.3,0.68,0.68,0.68H11c0.37,0,0.68-0.3,0.68-0.68
					S11.37-20.78,11-20.78z"/>
			</g>
			<g>
				<path style="fill:#DABC70;" d="M11-16.31H-3.75c-0.37,0-0.68,0.3-0.68,0.68c0,0.37,0.3,0.68,0.68,0.68H11
					c0.37,0,0.68-0.3,0.68-0.68C11.67-16.01,11.37-16.31,11-16.31z"/>
			</g>
			<g>
				<path style="fill:#DABC70;" d="M11-34.18h-23.98c-0.37,0-0.68,0.3-0.68,0.68s0.3,0.68,0.68,0.68H11c0.37,0,0.68-0.3,0.68-0.68
					S11.37-34.18,11-34.18z"/>
			</g>
		</g>
		<g>
			<path style="fill:#9F79A8;" d="M-29.54-34.09c0,0.31,0.25,0.56,0.56,0.56H1.56c0.31,0,0.56-0.25,0.56-0.56v-14.77
				c0-0.31-0.25-0.56-0.56-0.56h-30.54c-0.31,0-0.56,0.25-0.56,0.56V-34.09z"/>
		</g>
		<g>
			<path style="fill:#54526A;" d="M-11.6-40.88l-5.69,3.01c-0.13,0.07-0.28,0.1-0.42,0.1c-0.16,0-0.32-0.04-0.46-0.13
				c-0.27-0.16-0.44-0.46-0.44-0.77v-6.01c0-0.32,0.17-0.61,0.44-0.77c0.14-0.09,0.3-0.13,0.46-0.13c0.14,0,0.29,0.03,0.42,0.1
				l5.69,3.01c0.3,0.16,0.48,0.46,0.48,0.8C-11.12-41.34-11.3-41.03-11.6-40.88z"/>
		</g>
		<g>
			<g>
				<path style="fill:#90D6E3;" d="M0.94-47.4h25.85c0.26,0,0.47,0.21,0.47,0.47v17.26c0,0.26-0.21,0.47-0.47,0.47H0.94
					c-0.26,0-0.47-0.21-0.47-0.47v-17.26C0.47-47.18,0.68-47.4,0.94-47.4z"/>
			</g>
			<g>
				<path style="fill:#D7EFF6;" d="M0.94-47.4h25.85c0.26,0,0.47,0.21,0.47,0.47v6.07l-6.81,6.81L10.49-44l-3.88,3.88l-6.14-6.14
					v-0.66C0.47-47.18,0.68-47.4,0.94-47.4z"/>
			</g>
			<g>
				<path style="fill:#EAEFF2;" d="M26.79-29.19c0.26,0,0.47-0.21,0.47-0.47v-17.26c0-0.26-0.21-0.47-0.47-0.47H0.94
					c-0.26,0-0.47,0.21-0.47,0.47v17.26c0,0.26,0.21,0.47,0.47,0.47H26.79 M26.79-27.16H0.94c-1.38,0-2.5-1.12-2.5-2.5v-17.26
					c0-1.38,1.12-2.5,2.5-2.5h25.85c1.38,0,2.5,1.12,2.5,2.5v17.26C29.29-28.28,28.17-27.16,26.79-27.16L26.79-27.16z"/>
			</g>
			<g>
				<path style="fill:#FBB040;" d="M8.99-34.72c0-1.31-1.06-2.38-2.38-2.38c-1.31,0-2.38,1.06-2.38,2.38c0,1.31,1.06,2.38,2.38,2.38
					C7.93-32.34,8.99-33.41,8.99-34.72z"/>
			</g>
		</g>
		<g>
			<g>
				<path style="fill:#DABC70;" d="M-7.94-21.19c-0.37,0-0.68,0.3-0.68,0.68v2.98c0,1.02-0.83,1.85-1.85,1.85s-1.85-0.83-1.85-1.85
					v-2.98c0-0.37-0.3-0.68-0.68-0.68s-0.68,0.3-0.68,0.68v2.98c0,1.76,1.44,3.2,3.2,3.2c1.76,0,3.2-1.44,3.2-3.2v-2.98
					C-7.26-20.89-7.56-21.19-7.94-21.19z"/>
			</g>
			<g>
				<path style="fill:#DABC70;" d="M-7.94-19.54h-5.05c-0.37,0-0.68,0.3-0.68,0.68s0.3,0.68,0.68,0.68h5.05
					c0.37,0,0.68-0.3,0.68-0.68S-7.56-19.54-7.94-19.54z"/>
			</g>
		</g>
	</g>
</symbol>
<use xlink:href="#New_Symbol_3"  width="184.22" height="184.25" id="XMLID_5_" x="-92.11" y="-92.13" transform="matrix(1 0 0 -1 92.1107 92.1254)" style="overflow:visible;"/>
</svg>
